<svg
        id="svg1"
        y="363"
        viewBox="1.55 12.34 502.63 48.849998"
        x="36.18498229980469"
        height="48.849998"
        width="502.63"
        style="overflow: visible"
        version="1.1"
        xmlns="http://www.w3.org/2000/svg"
>
    <g id="g1" fill="#000000" fill-opacity="1">
        <path
                id="freelancer-text"
                d="M 3.72,54.68 3.16,54 q -1.61,-1.98 -1.61,-3.56 0,-1.58 2.67,-4.19 v 0 q 1.55,-1.49 3.28,-1.49 1.74,0 4.84,3.1 v 0 q 0.87,1.06 2.48,2.02 1.61,0.96 2.97,0.96 v 0 q 5.77,0 5.77,-4.71 v 0 q 0,-1.43 -1.58,-2.39 Q 20.4,42.78 18.04,42.35 15.69,41.91 12.96,40.95 10.23,39.99 7.87,38.69 5.52,37.39 3.94,34.56 2.36,31.74 2.36,27.78 v 0 q 0,-5.46 4.06,-9.52 4.06,-4.06 11.06,-4.06 v 0 q 3.72,0 6.79,0.96 3.07,0.96 4.25,1.95 v 0 l 1.55,1.18 q 1.92,1.8 1.92,3.04 0,1.24 -1.49,3.41 v 0 q -2.1,3.1 -4.34,3.1 v 0 q -1.3,0 -3.22,-1.24 v 0 q -0.19,-0.13 -0.71,-0.62 -0.53,-0.5 -0.96,-0.81 v 0 q -1.31,-0.8 -3.32,-0.8 -2.02,0 -3.35,0.96 -1.33,0.96 -1.33,2.66 0,1.71 1.58,2.76 1.58,1.06 3.94,1.43 2.35,0.37 5.14,1.15 2.79,0.77 5.15,1.89 2.35,1.11 3.94,3.87 1.58,2.76 1.58,6.79 0,4.03 -1.62,7.1 -1.61,3.07 -4.21,4.74 v 0 q -5.02,3.29 -10.73,3.29 v 0 q -2.91,0 -5.52,-0.72 -2.6,-0.71 -4.21,-1.76 v 0 Q 5.02,56.54 3.72,54.68 Z M 49.29,32.05 v 0 q 2.91,-4.4 7.01,-4.4 v 0 q 6.32,0 9.42,5.4 v 0 q 0.68,-0.93 1.64,-1.96 0.96,-1.02 3.07,-2.23 2.11,-1.21 4.34,-1.21 v 0 q 4.96,0 8.31,3.81 3.35,3.82 3.35,12.62 v 0 10.85 q 0,1.43 -0.09,2.14 -0.1,0.71 -0.59,1.64 v 0 q -0.81,1.68 -4.78,1.68 v 0 q -3.9,0 -4.77,-1.74 v 0 Q 75.76,57.72 75.67,57.01 75.58,56.3 75.58,54.87 v 0 -10.85 q 0,-5.39 -3.85,-5.39 v 0 q -2.17,0 -2.94,1.42 -0.78,1.43 -0.78,4.03 v 0 10.85 q 0,1.49 -0.09,2.17 -0.09,0.68 -0.59,1.61 v 0 q -0.87,1.68 -4.83,1.68 v 0 q -3.91,0 -4.78,-1.74 v 0 Q 57.29,57.72 57.2,57.01 57.1,56.3 57.1,54.87 v 0 -10.85 q 0,-5.39 -3.84,-5.39 v 0 q -3.72,0 -3.72,5.39 v 0 10.97 q 0,1.43 -0.09,2.14 -0.1,0.72 -0.59,1.65 v 0 q -0.93,1.61 -4.84,1.61 v 0 q -3.91,0 -4.77,-1.68 v 0 Q 38.81,57.78 38.72,57.1 38.63,56.42 38.63,54.93 v 0 -21.82 q 0,-1.43 0.09,-2.14 0.09,-0.71 0.59,-1.58 v 0 q 0.93,-1.68 4.4,-1.68 3.47,0 4.53,1.12 1.05,1.12 1.05,3.22 z m 63.3,-0.86 v 0 q 0.37,-3.48 4.9,-3.48 v 0 q 2.42,0 3.6,0.38 1.17,0.37 1.64,1.3 0.46,0.93 0.56,1.64 0.09,0.71 0.09,2.14 v 0 21.7 q 0,1.43 -0.09,2.14 -0.1,0.71 -0.53,1.64 v 0 q -0.87,1.61 -4.25,1.61 -3.38,0 -4.52,-0.83 -1.15,-0.84 -1.34,-2.45 v 0 q -2.29,3.28 -7.65,3.28 -5.37,0 -9.95,-4.89 -4.59,-4.9 -4.59,-11.38 0,-6.48 4.62,-11.35 4.62,-4.86 10.13,-4.86 v 0 q 2.11,0 3.85,0.74 1.73,0.74 2.42,1.39 0.68,0.66 1.11,1.28 z m -11.28,12.89 q 0,2.05 1.61,3.69 1.61,1.64 3.91,1.64 2.29,0 3.81,-1.67 1.52,-1.67 1.52,-3.69 0,-2.01 -1.46,-3.75 -1.46,-1.74 -3.9,-1.74 -2.45,0 -3.97,1.74 -1.52,1.74 -1.52,3.78 z m 49.23,-15.99 q 1.17,0.37 1.95,1.27 0.77,0.9 0.77,2.88 0,1.98 -1.17,4.34 -1.18,2.36 -3.41,2.36 v 0 q -1.12,0 -2.14,-0.5 -1.03,-0.5 -2.7,-0.5 -1.67,0 -3.13,1.18 -1.46,1.18 -1.46,2.85 v 0 13.02 q 0,1.43 -0.09,2.14 -0.09,0.72 -0.59,1.65 v 0 q -0.93,1.61 -4.84,1.61 v 0 q -2.97,0 -4.27,-1.06 v 0 q -1,-0.86 -1.12,-2.66 v 0 q 0,-0.62 0,-1.8 v 0 -21.76 q 0,-1.43 0.09,-2.14 0.1,-0.71 0.53,-1.58 v 0 q 0.87,-1.68 4.84,-1.68 v 0 q 3.72,0 4.65,1.43 v 0 q 0.68,0.99 0.68,2.05 v 0 q 0.31,-0.44 0.9,-1.06 0.59,-0.62 2.51,-1.67 1.92,-1.06 3.38,-1.06 1.45,0 2.45,0.16 0.99,0.15 2.17,0.53 z m 25.11,10.6 v 0 l -4.03,-0.25 V 47 q 0,1.67 0.52,2.41 0.53,0.75 1.99,0.75 1.45,0 2.23,0.09 0.77,0.09 1.64,0.59 v 0 q 1.43,0.81 1.43,4.15 v 0 q 0,3.91 -1.74,4.78 v 0 q -0.93,0.43 -1.64,0.52 -0.71,0.1 -2.08,0.1 v 0 q -6.45,0 -9.79,-2.92 -3.35,-2.91 -3.35,-9.85 v 0 -9.18 q -1.18,0.19 -2.54,0.19 -1.37,0 -2.27,-1.06 -0.9,-1.05 -0.9,-3.59 0,-2.55 0.31,-3.69 0.31,-1.15 0.87,-1.65 v 0 q 0.99,-0.8 2.48,-0.8 v 0 l 2.05,0.25 V 21.7 q 0,-1.43 0.09,-2.11 0.09,-0.68 0.59,-1.49 v 0 q 0.81,-1.55 4.77,-1.55 v 0 q 4.22,0 5.03,2.3 v 0 q 0.31,0.99 0.31,3.16 v 0 6.08 q 2.72,-0.25 4.12,-0.25 1.39,0 2.11,0.09 0.71,0.09 1.64,0.59 v 0 q 1.61,0.81 1.61,4.77 v 0 q 0,3.91 -1.67,4.78 v 0 q -0.93,0.43 -1.65,0.52 -0.71,0.1 -2.13,0.1 z m 14.5,-23.75 h 24.43 q 1.43,0 2.14,0.09 0.71,0.1 1.61,0.59 0.9,0.5 1.27,1.68 0.38,1.18 0.38,3.16 0,1.98 -0.38,3.16 -0.37,1.18 -1.3,1.65 -0.93,0.46 -1.64,0.55 -0.71,0.1 -2.2,0.1 v 0 h -18.97 v 6.26 h 12.21 q 1.49,0 2.2,0.09 0.71,0.09 1.64,0.59 v 0 q 1.62,0.93 1.62,4.9 v 0 q 0,4.34 -2.36,5.14 v 0 q -0.99,0.31 -3.16,0.31 v 0 h -12.15 v 11.72 q 0,1.49 -0.1,2.17 -0.09,0.68 -0.59,1.61 v 0 q -0.86,1.68 -4.83,1.68 v 0 q -4.34,0 -5.09,-2.36 v 0 q -0.37,-0.99 -0.37,-3.16 v 0 -34.47 q 0,-3.16 1.18,-4.31 1.18,-1.15 4.46,-1.15 z m 52.33,13.15 q 1.18,0.37 1.95,1.27 0.78,0.9 0.78,2.88 0,1.98 -1.18,4.34 -1.18,2.36 -3.41,2.36 v 0 q -1.11,0 -2.14,-0.5 -1.02,-0.5 -2.69,-0.5 -1.68,0 -3.14,1.18 -1.45,1.18 -1.45,2.85 v 0 13.02 q 0,1.43 -0.1,2.14 -0.09,0.72 -0.58,1.65 v 0 q -0.93,1.61 -4.84,1.61 v 0 q -2.98,0 -4.28,-1.06 v 0 q -0.99,-0.86 -1.11,-2.66 v 0 q 0,-0.62 0,-1.8 v 0 -21.76 q 0,-1.43 0.09,-2.14 0.09,-0.71 0.53,-1.58 v 0 q 0.86,-1.68 4.83,-1.68 v 0 q 3.72,0 4.65,1.43 v 0 q 0.68,0.99 0.68,2.05 v 0 q 0.31,-0.44 0.9,-1.06 0.59,-0.62 2.51,-1.67 1.93,-1.06 3.38,-1.06 1.46,0 2.45,0.16 0.99,0.15 2.17,0.53 z m 35.78,12.05 q 0,3.82 -1.9,5.65 -1.89,1.83 -4.18,1.83 v 0 h -14.69 q 0,1.73 2.04,2.91 2.05,1.18 4.09,1.18 v 0 q 3.6,0 5.65,-0.75 v 0 l 0.68,-0.24 q 1.49,-0.69 2.48,-0.69 v 0 q 1.98,0 3.41,2.79 v 0 q 0.8,1.68 0.8,2.86 v 0 q 0,5.51 -13.2,5.51 v 0 q -4.59,0 -8.16,-1.58 -3.56,-1.58 -5.54,-4.18 v 0 q -3.91,-5.02 -3.91,-11.22 v 0 q 0,-7.82 5.05,-12.5 5.06,-4.68 12.62,-4.68 v 0 q 8.62,0 12.65,6.08 v 0 q 2.11,3.22 2.11,7.03 z m -20.9,1.83 h 7.81 q 2.36,0 2.36,-1.98 v 0 q 0,-1.43 -1.09,-2.29 -1.08,-0.87 -3.1,-0.87 -2.01,0 -3.99,1.64 -1.99,1.64 -1.99,3.5 z m 56.42,-1.83 q 0,3.82 -1.89,5.65 -1.89,1.83 -4.18,1.83 v 0 h -14.7 q 0,1.73 2.05,2.91 2.04,1.18 4.09,1.18 v 0 q 3.6,0 5.64,-0.75 v 0 l 0.68,-0.24 q 1.49,-0.69 2.48,-0.69 v 0 q 1.99,0 3.41,2.79 v 0 q 0.81,1.68 0.81,2.86 v 0 q 0,5.51 -13.21,5.51 v 0 q -4.58,0 -8.15,-1.58 -3.56,-1.58 -5.55,-4.18 v 0 q -3.9,-5.02 -3.9,-11.22 v 0 q 0,-7.82 5.05,-12.5 5.05,-4.68 12.62,-4.68 v 0 q 8.61,0 12.64,6.08 v 0 q 2.11,3.22 2.11,7.03 z m -20.89,1.83 h 7.81 q 2.36,0 2.36,-1.98 v 0 q 0,-1.43 -1.09,-2.29 -1.08,-0.87 -3.1,-0.87 -2.01,0 -4,1.64 -1.98,1.64 -1.98,3.5 z m 24.92,5.34 V 17.79 q 0,-1.42 0.09,-2.13 0.1,-0.72 0.53,-1.65 v 0 q 0.87,-1.67 4.84,-1.67 v 0 q 3.78,0 4.71,1.67 v 0 q 0.5,0.93 0.59,1.68 0.09,0.74 0.09,2.17 v 0 28.7 q 0,2.23 0.37,2.82 0.38,0.59 1.65,0.59 1.27,0 1.7,0.09 0.44,0.1 1.06,0.53 v 0 q 1.24,0.81 1.24,4.4 v 0 q 0,3.91 -1.24,4.78 v 0 q -1.62,1.11 -7.69,0.37 v 0 q -4.78,-0.62 -6.2,-3.16 v 0 q -1.74,-3.04 -1.74,-9.67 z m 41.48,-16.12 v 0 q 0.37,-3.48 4.9,-3.48 v 0 q 2.42,0 3.59,0.38 1.18,0.37 1.65,1.3 0.46,0.93 0.56,1.64 0.09,0.71 0.09,2.14 v 0 21.7 q 0,1.43 -0.09,2.14 -0.1,0.71 -0.53,1.64 v 0 q -0.87,1.61 -4.25,1.61 -3.38,0 -4.52,-0.83 -1.15,-0.84 -1.34,-2.45 v 0 q -2.29,3.28 -7.66,3.28 -5.36,0 -9.95,-4.89 -4.58,-4.9 -4.58,-11.38 0,-6.48 4.61,-11.35 4.62,-4.86 10.14,-4.86 v 0 q 2.11,0 3.85,0.74 1.73,0.74 2.41,1.39 0.69,0.66 1.12,1.28 z m -11.28,12.89 q 0,2.05 1.61,3.69 1.61,1.64 3.9,1.64 2.3,0 3.82,-1.67 1.52,-1.67 1.52,-3.69 0,-2.01 -1.46,-3.75 -1.46,-1.74 -3.91,-1.74 -2.45,0 -3.97,1.74 -1.51,1.74 -1.51,3.78 z M 393.2,27.71 v 0 q 6.2,0 10.33,4.75 4.12,4.74 4.12,11.56 v 0 10.91 q 0,1.43 -0.09,2.14 -0.1,0.71 -0.53,1.58 v 0 q -0.87,1.68 -4.84,1.68 v 0 q -4.4,0 -5.08,-2.3 v 0 q -0.37,-1.05 -0.37,-3.16 v 0 -10.91 q 0,-2.54 -1.46,-3.97 -1.46,-1.43 -3.9,-1.43 -2.45,0 -3.97,1.49 -1.52,1.49 -1.52,3.91 v 0 10.97 q 0,1.43 -0.09,2.14 -0.1,0.71 -0.59,1.58 v 0 q -0.81,1.68 -4.78,1.68 v 0 q -3.9,0 -4.77,-1.68 v 0 q -0.44,-0.93 -0.53,-1.64 -0.09,-0.71 -0.09,-2.14 v 0 -21.95 q 0,-1.36 0.09,-2.08 0.09,-0.71 0.59,-1.58 v 0 q 0.87,-1.55 4.77,-1.55 v 0 q 3.79,0 4.65,1.43 v 0 q 0.62,1.05 0.62,2.54 v 0 q 0.25,-0.43 1.12,-1.24 0.87,-0.8 1.67,-1.3 v 0 q 2.11,-1.43 4.65,-1.43 z m 29.64,16.34 q 0,2.64 1.74,4.09 1.73,1.46 3.68,1.46 1.96,0 3.66,-1.15 1.71,-1.14 2.76,-1.14 v 0 q 1.86,0 4.53,3.28 v 0 q 1.42,1.8 1.42,3.23 v 0 q 0,2.35 -3.41,4.4 v 0 q -3.53,2.48 -8.68,2.48 v 0 q -5.76,0 -11.09,-4.16 v 0 q -2.55,-1.98 -4.16,-5.3 -1.61,-3.31 -1.61,-7.31 0,-4 1.61,-7.26 1.61,-3.25 4.16,-5.24 v 0 q 5.14,-4.09 10.97,-4.09 v 0 q 2.36,0 4.59,0.65 2.23,0.65 3.28,1.27 v 0 l 1,0.62 q 1.11,0.75 1.73,1.18 v 0 q 1.61,1.24 1.61,2.82 0,1.58 -1.3,3.57 v 0 q -2.23,3.41 -4.28,3.41 v 0 q -1.17,0 -3.34,-1.37 v 0 q -1.12,-1.05 -3.2,-1.05 -2.07,0 -3.87,1.49 -1.8,1.49 -1.8,4.12 z m 52.39,-3.91 q 0,3.82 -1.89,5.65 -1.89,1.83 -4.19,1.83 v 0 h -14.69 q 0,1.73 2.05,2.91 2.04,1.18 4.09,1.18 v 0 q 3.59,0 5.64,-0.75 v 0 l 0.68,-0.24 q 1.49,-0.69 2.48,-0.69 v 0 q 1.99,0 3.41,2.79 v 0 q 0.81,1.68 0.81,2.86 v 0 q 0,5.51 -13.21,5.51 v 0 q -4.59,0 -8.15,-1.58 -3.57,-1.58 -5.55,-4.18 v 0 Q 442.8,50.41 442.8,44.21 v 0 q 0,-7.82 5.06,-12.5 5.05,-4.68 12.61,-4.68 v 0 q 8.62,0 12.65,6.08 v 0 q 2.11,3.22 2.11,7.03 z m -20.89,1.83 h 7.81 q 2.35,0 2.35,-1.98 v 0 q 0,-1.43 -1.08,-2.29 -1.09,-0.87 -3.1,-0.87 -2.02,0 -4,1.64 -1.98,1.64 -1.98,3.5 z m 47.12,-13.88 q 1.17,0.37 1.95,1.27 0.77,0.9 0.77,2.88 0,1.98 -1.17,4.34 -1.18,2.36 -3.41,2.36 v 0 q -1.12,0 -2.14,-0.5 -1.03,-0.5 -2.7,-0.5 -1.67,0 -3.13,1.18 -1.46,1.18 -1.46,2.85 v 0 13.02 q 0,1.43 -0.09,2.14 -0.09,0.72 -0.59,1.65 v 0 q -0.93,1.61 -4.84,1.61 v 0 q -2.97,0 -4.27,-1.06 v 0 q -1,-0.86 -1.12,-2.66 v 0 q 0,-0.62 0,-1.8 v 0 -21.76 q 0,-1.43 0.09,-2.14 0.1,-0.71 0.53,-1.58 v 0 q 0.87,-1.68 4.84,-1.68 v 0 q 3.72,0 4.65,1.43 v 0 q 0.68,0.99 0.68,2.05 v 0 q 0.31,-0.44 0.9,-1.06 0.59,-0.62 2.51,-1.67 1.92,-1.06 3.38,-1.06 1.45,0 2.45,0.16 0.99,0.15 2.17,0.53 z"
        />
    </g>
</svg>